<svg width="35" height="34" viewBox="0 0 35 34" fill="none" xmlns="http://www.w3.org/2000/svg">
<g clip-path="url(#clip0_4113_27994)">
<path d="M26.3487 22.4916C25.2379 21.3949 23.8512 21.3949 22.7475 22.4916C21.9055 23.3264 21.0636 24.1613 20.2358 25.0103C20.0094 25.2438 19.8184 25.2933 19.5425 25.1377C18.9977 24.8405 18.4175 24.6 17.894 24.2745C15.4531 22.7392 13.4084 20.7653 11.5971 18.5437C10.6986 17.44 9.89912 16.2584 9.34019 14.9283C9.22699 14.6595 9.24821 14.4826 9.46754 14.2633C10.3095 13.4496 11.1302 12.6148 11.958 11.7799C13.1112 10.6196 13.1112 9.26118 11.9509 8.09379C11.2929 7.42873 10.6349 6.77782 9.97694 6.11277C9.29774 5.43356 8.6256 4.74728 7.93932 4.07514C6.82854 2.99266 5.44182 2.99266 4.33811 4.08222C3.4891 4.91708 2.67546 5.77316 1.8123 6.59387C1.01282 7.35091 0.609541 8.27774 0.52464 9.36023C0.390213 11.1219 0.821793 12.7846 1.43025 14.4048C2.67546 17.7584 4.57159 20.737 6.87099 23.4679C9.97694 27.1611 13.6843 30.0831 18.0213 32.1915C19.974 33.1396 21.9975 33.8683 24.1979 33.9886C25.7119 34.0735 27.0279 33.6914 28.0821 32.5099C28.8037 31.7033 29.6174 30.9675 30.3815 30.1963C31.5135 29.0502 31.5206 27.6635 30.3956 26.5315C29.0514 25.1801 27.7 23.8358 26.3487 22.4916Z" fill="white"/>
<path d="M24.6804 15.5691C24.9068 16.2642 25.5813 16.7531 26.302 16.63C27.0233 16.5069 27.5156 15.819 27.3118 15.1162C26.7645 13.2296 25.7517 11.5211 24.3466 10.1102C22.8447 8.60832 21.0146 7.565 18.9958 7.04802C18.2866 6.86641 17.6137 7.37952 17.5121 8.10451C17.4105 8.82942 17.92 9.48976 18.6227 9.69478C20.0718 10.1175 21.3878 10.8942 22.4788 11.9851C23.4945 13.0008 24.242 14.2228 24.6804 15.5691Z" fill="white"/>
<path d="M29.0808 5.50441C26.3815 2.8051 23.0409 0.996742 19.3488 0.226727C18.6324 0.0773231 17.9614 0.587239 17.8598 1.31194C17.7582 2.03703 18.2653 2.70187 18.9803 2.85946C22.1001 3.54708 24.9244 5.09694 27.213 7.37931C29.3681 9.53438 30.8764 12.1853 31.6157 15.1062C31.795 15.8145 32.4733 16.3004 33.1935 16.1774C33.9149 16.0543 34.4038 15.3675 34.2311 14.6564C33.3898 11.1935 31.6248 8.05472 29.0808 5.50441Z" fill="white"/>
</g>
<defs>
<clipPath id="clip0_4113_27994">
<rect width="34" height="34" fill="white" transform="translate(0.5)"/>
</clipPath>
</defs>
</svg>
