<svg width="35" height="34" viewBox="0 0 35 34" fill="none" xmlns="http://www.w3.org/2000/svg">
<path d="M19.1845 8.5H10.1179C9.74953 8.5 9.39537 8.51417 9.05537 8.55667C5.24453 8.8825 3.33203 11.135 3.33203 15.2858V20.9525C3.33203 26.6192 5.5987 27.7383 10.1179 27.7383H10.6845C10.9962 27.7383 11.407 27.9508 11.5912 28.1917L13.2912 30.4583C14.042 31.4642 15.2604 31.4642 16.0112 30.4583L17.7112 28.1917C17.9237 27.9083 18.2637 27.7383 18.6179 27.7383H19.1845C23.3354 27.7383 25.5879 25.84 25.9137 22.015C25.9562 21.675 25.9704 21.3208 25.9704 20.9525V15.2858C25.9704 10.7667 23.7037 8.5 19.1845 8.5ZM9.70703 19.8333C8.9137 19.8333 8.29037 19.1958 8.29037 18.4167C8.29037 17.6375 8.92787 17 9.70703 17C10.4862 17 11.1237 17.6375 11.1237 18.4167C11.1237 19.1958 10.4862 19.8333 9.70703 19.8333ZM14.6512 19.8333C13.8579 19.8333 13.2345 19.1958 13.2345 18.4167C13.2345 17.6375 13.872 17 14.6512 17C15.4304 17 16.0679 17.6375 16.0679 18.4167C16.0679 19.1958 15.4445 19.8333 14.6512 19.8333ZM19.6095 19.8333C18.8162 19.8333 18.1929 19.1958 18.1929 18.4167C18.1929 17.6375 18.8304 17 19.6095 17C20.3887 17 21.0262 17.6375 21.0262 18.4167C21.0262 19.1958 20.3887 19.8333 19.6095 19.8333Z" fill="white"/>
<path d="M31.6383 9.61908V15.2857C31.6383 18.1191 30.76 20.0457 29.0033 21.1082C28.5783 21.3632 28.0825 21.0232 28.0825 20.5274L28.0966 15.2857C28.0966 9.61908 24.8525 6.37492 19.1858 6.37492L10.5584 6.38908C10.0625 6.38908 9.72252 5.89325 9.97752 5.46825C11.04 3.71158 12.9667 2.83325 15.7858 2.83325H24.8525C29.3716 2.83325 31.6383 5.09992 31.6383 9.61908Z" fill="white"/>
</svg>
